<svg width="24" height="24" viewBox="0 0 24 24" xmlns="http://www.w3.org/2000/svg">
<path fill-rule="evenodd" clip-rule="evenodd" d="M6.35183 8.75306C6.57687 8.5281 6.88204 8.40172 7.20023 8.40172C7.51843 8.40172 7.8236 8.5281 8.04863 8.75306L12.0002 12.7047L15.9518 8.75306C16.0625 8.63845 16.1949 8.54703 16.3413 8.48414C16.4878 8.42125 16.6452 8.38815 16.8046 8.38676C16.9639 8.38538 17.1219 8.41574 17.2694 8.47608C17.4169 8.53642 17.5508 8.62552 17.6635 8.73819C17.7762 8.85086 17.8653 8.98484 17.9256 9.13232C17.986 9.2798 18.0163 9.43781 18.0149 9.59715C18.0136 9.75648 17.9804 9.91394 17.9176 10.0603C17.8547 10.2068 17.7632 10.3392 17.6486 10.4499L12.8486 15.2499C12.6236 15.4748 12.3184 15.6012 12.0002 15.6012C11.682 15.6012 11.3769 15.4748 11.1518 15.2499L6.35183 10.4499C6.12687 10.2248 6.00049 9.91966 6.00049 9.60146C6.00049 9.28327 6.12687 8.9781 6.35183 8.75306V8.75306Z"/>
</svg>
